<?xml version="1.0" encoding="UTF-8"?>
<svg version="1.1" xmlns="http://www.w3.org/2000/svg" width="50" height="50">
<path d="M0 0 C1.24652344 -0.01417969 2.49304688 -0.02835937 3.77734375 -0.04296875 C7.0625 0.1875 7.0625 0.1875 10.0625 2.1875 C11.17882435 6.64623081 11.31726472 11.16718617 11.4375 15.75 C11.48648438 17.03003906 11.53546875 18.31007813 11.5859375 19.62890625 C10.93575736 24.0491608 9.53098986 25.47416184 6.0625 28.1875 C5.4025 28.1875 4.7425 28.1875 4.0625 28.1875 C4.0625 28.8475 4.0625 29.5075 4.0625 30.1875 C4.619375 30.20167969 5.17625 30.21585938 5.75 30.23046875 C12.90653278 30.67775205 17.98674337 33.11174337 23.0625 38.1875 C23.0625 42.1475 23.0625 46.1075 23.0625 50.1875 C7.8825 50.1875 -7.2975 50.1875 -22.9375 50.1875 C-22.9375 38.1875 -22.9375 38.1875 -20.375 35.125 C-14.96130491 32.07364458 -10.14030809 29.94394001 -3.9375 29.1875 C-4.906875 28.56875 -5.87625 27.95 -6.875 27.3125 C-9.9375 25.1875 -9.9375 25.1875 -10.9375 23.1875 C-11.06194602 20.7940847 -11.11317069 18.39661922 -11.125 16 C-11.13917969 14.70707031 -11.15335938 13.41414062 -11.16796875 12.08203125 C-10.92687284 8.00791894 -10.31966915 5.00422674 -8.9375 1.1875 C-5.98162889 -0.29043555 -3.28752355 0.01696349 0 0 Z M-5.9375 3.1875 C-7.50022189 7.58003773 -7.50022189 7.58003773 -7.9375 12.1875 C-5.6275 12.1875 -3.3175 12.1875 -0.9375 12.1875 C-0.9375 11.1975 -0.9375 10.2075 -0.9375 9.1875 C-1.9275 9.1875 -2.9175 9.1875 -3.9375 9.1875 C-3.9375 8.5275 -3.9375 7.8675 -3.9375 7.1875 C-2.9475 7.1875 -1.9575 7.1875 -0.9375 7.1875 C-0.9375 6.1975 -0.9375 5.2075 -0.9375 4.1875 C-0.2775 4.1875 0.3825 4.1875 1.0625 4.1875 C1.0625 5.1775 1.0625 6.1675 1.0625 7.1875 C2.0525 7.1875 3.0425 7.1875 4.0625 7.1875 C4.0625 7.8475 4.0625 8.5075 4.0625 9.1875 C3.0725 9.1875 2.0825 9.1875 1.0625 9.1875 C1.0625 10.1775 1.0625 11.1675 1.0625 12.1875 C3.3725 12.1875 5.6825 12.1875 8.0625 12.1875 C7.918125 10.888125 7.77375 9.58875 7.625 8.25 C7.50318359 7.15365234 7.50318359 7.15365234 7.37890625 6.03515625 C7.24363386 4.17609771 7.24363386 4.17609771 6.0625 3.1875 C4.04285801 3.11505947 2.02082876 3.10372812 0 3.125 C-1.10472656 3.13402344 -2.20945312 3.14304688 -3.34765625 3.15234375 C-4.20230469 3.16394531 -5.05695312 3.17554688 -5.9375 3.1875 Z M-7.9375 15.1875 C-8.53189106 20.97917176 -8.53189106 20.97917176 -5.8125 24.0625 C-3.11010217 26.36955087 -3.11010217 26.36955087 0.0625 26.8125 C4.1368356 25.96368008 5.60655875 24.51024404 8.0625 21.1875 C8.0625 19.2075 8.0625 17.2275 8.0625 15.1875 C2.7825 15.1875 -2.4975 15.1875 -7.9375 15.1875 Z M-4.9375 34.1875 C-3.6175 37.4875 -2.2975 40.7875 -0.9375 44.1875 C-0.2775 44.1875 0.3825 44.1875 1.0625 44.1875 C2.3825 40.5575 3.7025 36.9275 5.0625 33.1875 C1.40819729 31.36034864 -2.02772516 31.27772516 -4.9375 34.1875 Z M-19.8125 40.0625 C-21.40538772 42.67055075 -21.40538772 42.67055075 -20.9375 48.1875 C-14.6675 48.1875 -8.3975 48.1875 -1.9375 48.1875 C-2.659375 46.063125 -3.38125 43.93875 -4.125 41.75 C-4.73408203 39.95755859 -4.73408203 39.95755859 -5.35546875 38.12890625 C-6.63396887 35.00499414 -6.63396887 35.00499414 -9.41796875 34.171875 C-13.92672148 34.19983626 -16.74546353 36.99546353 -19.8125 40.0625 Z M8.0625 34.1875 C7.06020632 36.33228916 6.06057145 38.47824722 5.0625 40.625 C4.505625 41.81996094 3.94875 43.01492187 3.375 44.24609375 C1.99458528 46.80287653 1.99458528 46.80287653 2.0625 48.1875 C8.3325 48.1875 14.6025 48.1875 21.0625 48.1875 C21.63170998 42.35088435 21.63170998 42.35088435 18.8125 38.9375 C15.80986447 35.897013 15.80986447 35.897013 12.0625 34.1875 C10.7425 34.1875 9.4225 34.1875 8.0625 34.1875 Z " fill="#000000" transform="translate(24.9375,-0.1875)"/>
</svg>
