<?xml version="1.0" standalone="no"?>
<!DOCTYPE svg PUBLIC "-//W3C//DTD SVG 20010904//EN"
 "http://www.w3.org/TR/2001/REC-SVG-20010904/DTD/svg10.dtd">
<svg version="1.0" xmlns="http://www.w3.org/2000/svg"
 width="50.000000pt" height="50.000000pt" viewBox="0 0 50.000000 50.000000"
 preserveAspectRatio="xMidYMid meet">

<g transform="translate(0.000000,50.000000) scale(0.100000,-0.100000)"
fill="#000000" stroke="none">
<path d="M81 442 c-19 -9 -43 -29 -54 -43 -21 -29 -36 -119 -20 -119 6 0 13
21 16 46 7 63 48 104 109 111 40 5 49 2 82 -27 l37 -33 30 29 c25 24 39 29 79
29 43 0 54 -5 82 -33 29 -28 33 -39 33 -85 0 -76 -37 -132 -135 -207 -43 -33
-83 -60 -89 -60 -17 0 -166 116 -184 143 -17 26 -37 36 -37 18 0 -16 83 -95
152 -144 l68 -48 89 66 c94 69 146 132 157 191 25 132 -105 230 -210 159 l-36
-24 -36 24 c-43 29 -86 32 -133 7z"/>
<path d="M166 378 c-3 -7 -10 -40 -17 -73 -11 -56 -13 -58 -21 -32 -11 32 -24
35 -33 7 -5 -16 -15 -20 -46 -20 -21 0 -39 -4 -39 -10 0 -15 87 -12 93 3 3 6
10 -3 17 -20 7 -18 16 -33 20 -33 5 0 14 26 21 58 13 64 14 64 32 -33 7 -38
17 -70 22 -70 6 1 19 25 29 54 l19 53 14 -34 14 -33 19 23 c16 19 27 23 57 20
29 -2 38 1 38 12 0 12 -10 14 -45 11 -25 -2 -48 -8 -52 -14 -8 -13 -10 -11
-26 26 -15 35 -28 28 -43 -23 -7 -22 -15 -37 -19 -35 -4 3 -13 41 -20 85 -12
77 -25 107 -34 78z"/>
</g>
</svg>
