<?xml version="1.0" encoding="UTF-8"?>
<svg version="1.1" xmlns="http://www.w3.org/2000/svg" width="512" height="512">
<path d="M0 0 C1.74961588 -0.00711474 3.49922946 -0.01481563 5.24884033 -0.02307129 C8.906845 -0.03647279 12.56463401 -0.03810511 16.22265625 -0.03222656 C20.87705824 -0.02634339 25.53041248 -0.05688467 30.18461227 -0.09734344 C33.79666578 -0.12338075 37.40847261 -0.12608329 41.02060699 -0.12245178 C42.73478063 -0.12412898 44.44896744 -0.13363431 46.16304779 -0.15159607 C61.97503468 -0.29904059 74.10885457 2.81886123 85.78515625 14.12109375 C88.79250279 17.35684636 90.81379885 20.73260532 92.75 24.69921875 C93.18924805 25.59406982 93.62849609 26.4889209 94.08105469 27.41088867 C94.41008789 28.08998291 94.73912109 28.76907715 95.078125 29.46875 C96.13919968 29.47017502 97.20027435 29.47160004 98.29350281 29.47306824 C108.34078695 29.48980827 118.3876697 29.5327946 128.43474102 29.60084057 C133.59888595 29.63498959 138.76273882 29.66020167 143.92700195 29.66430664 C148.91991782 29.66861562 153.91217622 29.69729215 158.90488625 29.74218178 C160.80041472 29.75507418 162.69602221 29.75949408 164.59158897 29.75490379 C181.19711899 29.72408559 193.28254952 32.25331059 205.75 44.05078125 C213.14413339 51.88322667 217.19518156 61.71495891 217.21513939 72.35898495 C217.21779122 73.05531553 217.22044304 73.75164611 217.22317523 74.46907762 C217.23086465 76.81386619 217.23142727 79.15860237 217.23202515 81.50340271 C217.23604002 83.1970087 217.24047828 84.89061373 217.2453047 86.58421761 C217.25727354 91.24752995 217.26291939 95.91083195 217.26748586 100.57415664 C217.27344086 105.60029204 217.28505105 110.62641506 217.29577637 115.65254211 C217.32030401 127.79638658 217.33492873 139.94023514 217.34783643 152.08409676 C217.35154832 155.51423702 217.35552156 158.94437687 217.3595891 162.37451673 C217.38482724 183.67570896 217.40688016 204.97690184 217.41931725 226.27810574 C217.42224694 231.21266622 217.4252086 236.14722668 217.42822266 241.08178711 C217.42896871 242.30824835 217.42971476 243.5347096 217.43048342 244.79833633 C217.44313379 264.6609793 217.47635225 284.52353268 217.51802449 304.38613378 C217.56045973 324.77965758 217.58401419 345.17313555 217.58923781 365.56670338 C217.59265028 377.01646343 217.60438609 388.46608352 217.63734055 399.91580009 C217.6653641 409.66832352 217.67633025 419.42067831 217.66514508 429.17323887 C217.65996425 434.14704144 217.66280796 439.12049098 217.68761063 444.0942421 C217.71015737 448.65378619 217.70932124 453.21272477 217.69040675 457.77227987 C217.68761433 459.41572689 217.69316292 461.05921546 217.70821969 462.70259588 C217.84057466 478.09847317 214.2232858 489.80423439 203.49609375 501.140625 C196.26091838 507.97091221 186.58179432 512.58167926 176.62468815 512.60576439 C175.51005446 512.61083893 174.39542076 512.61591347 173.24701029 512.62114179 C172.02242576 512.62163955 170.79784123 512.62213731 169.53614807 512.62265015 C168.23516597 512.6270324 166.93418387 512.63141465 165.59377807 512.6359297 C161.9794107 512.64788539 158.36505668 512.65354134 154.75067341 512.65811086 C150.85338093 512.66407091 146.95610437 512.67567989 143.05882263 512.68640137 C133.64396218 512.71091836 124.22909645 512.72555264 114.8142139 512.73846143 C112.15402602 512.74217425 109.49383866 512.74614742 106.8336513 512.7502141 C90.30733971 512.7754544 73.78102727 512.79750332 57.25470066 512.80994225 C53.42704325 512.81287186 49.59938586 512.81583353 45.77172852 512.81884766 C44.34474149 512.81996673 44.34474149 512.81996673 42.88892644 512.82110842 C27.48817398 512.83375405 12.08753718 512.86696664 -3.31316125 512.90864949 C-19.13239501 512.95111328 -34.95156965 512.97464252 -50.77086025 512.97986281 C-59.64963579 512.98327217 -68.52823066 512.99497097 -77.40695 513.02796555 C-84.97093759 513.05602854 -92.53470748 513.06693813 -100.09874307 513.05577008 C-103.95463778 513.05059909 -107.81007707 513.05336751 -111.665905 513.07823563 C-115.85659757 513.1050364 -120.04629708 513.09261475 -124.23704529 513.07675171 C-125.44155333 513.0906338 -126.64606136 513.10451588 -127.88706964 513.11881864 C-141.43923973 512.99293136 -151.86550577 508.0921835 -161.59375 498.88671875 C-168.98788339 491.05427333 -173.03893156 481.22254109 -173.05888939 470.57851505 C-173.06154122 469.88218447 -173.06419304 469.18585389 -173.06692523 468.46842238 C-173.07461465 466.12363381 -173.07517727 463.77889763 -173.07577515 461.43409729 C-173.07979002 459.7404913 -173.08422828 458.04688627 -173.0890547 456.35328239 C-173.10102354 451.68997005 -173.10666939 447.02666805 -173.11123586 442.36334336 C-173.11719086 437.33720796 -173.12880105 432.31108494 -173.13952637 427.28495789 C-173.16405401 415.14111342 -173.17867873 402.99726486 -173.19158643 390.85340324 C-173.19529832 387.42326298 -173.19927156 383.99312313 -173.2033391 380.56298327 C-173.22857724 359.26179104 -173.25063016 337.96059816 -173.26306725 316.65939426 C-173.26599694 311.72483378 -173.2689586 306.79027332 -173.27197266 301.85571289 C-173.27271871 300.62925165 -173.27346476 299.4027904 -173.27423342 298.13916367 C-173.28688379 278.2765207 -173.32010225 258.41396732 -173.36177449 238.55136622 C-173.40420973 218.15784242 -173.42776419 197.76436445 -173.43298781 177.37079662 C-173.43640028 165.92103657 -173.44813609 154.47141648 -173.48109055 143.02169991 C-173.5091141 133.26917648 -173.52008025 123.51682169 -173.50889508 113.76426113 C-173.50371425 108.79045856 -173.50655796 103.81700902 -173.53136063 98.8432579 C-173.55390737 94.28371381 -173.55307124 89.72477523 -173.53415675 85.16522013 C-173.53136433 83.52177311 -173.53691292 81.87828454 -173.55196969 80.23490412 C-173.68432466 64.83902683 -170.0670358 53.13326561 -159.33984375 41.796875 C-150.92440886 33.85237685 -140.80046155 30.34494879 -129.48144531 30.26342773 C-128.63230057 30.25352814 -127.78315582 30.24362854 -126.90827942 30.23342896 C-124.10554784 30.20187753 -121.30279932 30.17708165 -118.5 30.15234375 C-116.55515099 30.13176874 -114.6103064 30.11077212 -112.66546631 30.08937073 C-107.54945455 30.03420662 -102.43340281 29.98477237 -97.31732178 29.93652344 C-92.09562629 29.88626709 -86.87398878 29.8306026 -81.65234375 29.77539062 C-71.40890371 29.66787829 -61.1654133 29.56641793 -50.921875 29.46875 C-50.58536423 28.78113586 -50.24885345 28.09352173 -49.90214539 27.3850708 C-49.45708145 26.48359314 -49.01201752 25.58211548 -48.5534668 24.65332031 C-48.11383102 23.75945618 -47.67419525 22.86559204 -47.22123718 21.94464111 C-41.76965404 11.55683205 -31.89938626 4.7066913 -20.93395996 1.12364197 C-14.10253984 -0.3616555 -6.96215132 -0.00345513 0 0 Z M-17.734375 34.90625 C-24.65121722 43.00883661 -22.921875 49.19762301 -22.921875 60.46875 C6.778125 60.46875 36.478125 60.46875 67.078125 60.46875 C67.99336747 47.04543748 67.99336747 47.04543748 62.640625 35.65625 C57.19622468 31.00859119 53.11410267 30.34930083 46.11376953 30.32348633 C44.3463591 30.31391655 44.3463591 30.31391655 42.54324341 30.30415344 C41.27858246 30.30304062 40.01392151 30.3019278 38.7109375 30.30078125 C37.40285126 30.29745285 36.09476501 30.29412445 34.74703979 30.29069519 C31.98157933 30.28471976 29.21615005 30.28285366 26.45068359 30.28344727 C22.92139581 30.2835488 19.3923096 30.26989874 15.86306953 30.25267506 C12.47902273 30.23882812 9.09501223 30.23946496 5.7109375 30.23828125 C3.82001877 30.22750298 3.82001877 30.22750298 1.89089966 30.21650696 C-8.70483852 30.05046099 -8.70483852 30.05046099 -17.734375 34.90625 Z M-137.734375 64.90625 C-142.5988135 70.60459224 -143.04615439 74.85958542 -143.05050945 82.18644524 C-143.05226249 82.85195977 -143.05401553 83.5174743 -143.05582169 84.20315593 C-143.06047998 86.43704298 -143.05801663 88.67086488 -143.05558777 90.90475464 C-143.05745582 92.52100335 -143.05975651 94.13725161 -143.06245309 95.75349915 C-143.06857812 100.19811019 -143.06843667 104.64270245 -143.06725872 109.08731675 C-143.06705489 113.87950319 -143.07257173 118.67168356 -143.07731628 123.46386719 C-143.08562711 132.85362646 -143.08837132 142.24337946 -143.08892866 151.6331421 C-143.08940359 159.26406672 -143.09145718 166.89498927 -143.09462929 174.52591324 C-143.10343683 196.15322504 -143.10804848 217.78053188 -143.10729881 239.40784548 C-143.10725886 240.57408167 -143.1072189 241.74031785 -143.10717773 242.94189453 C-143.10713685 244.10955184 -143.10709597 245.27720915 -143.10705385 246.48025002 C-143.10664729 265.40920119 -143.1162191 284.33813248 -143.1303161 303.26707791 C-143.14467116 322.69557462 -143.15158677 342.12406163 -143.15072232 361.55256379 C-143.15039007 372.46327245 -143.15314976 383.37396026 -143.16390038 394.28466415 C-143.17299391 403.5732402 -143.17519006 412.86178594 -143.16839095 422.1503645 C-143.16512002 426.89041137 -143.16508971 431.63040006 -143.1737442 436.37044144 C-143.18158476 440.70926885 -143.18020286 445.04799173 -143.17146007 449.38681652 C-143.16991969 450.95676822 -143.17176143 452.52672763 -143.17732015 454.09667026 C-143.18437702 456.23103082 -143.17908934 458.36502434 -143.17076397 460.49937248 C-143.17098134 461.68480703 -143.17119871 462.87024158 -143.17142266 464.09159839 C-142.78385381 469.3366036 -141.95877073 473.27233185 -138.484375 477.28125 C-133.2764667 481.72702538 -129.3456975 482.59216936 -122.64097786 482.59738445 C-121.59032084 482.6006089 -120.53966381 482.60383335 -119.4571687 482.6071555 C-118.30922325 482.6056069 -117.16127781 482.6040583 -115.97854614 482.60246277 C-114.75414727 482.60472833 -113.5297484 482.60699388 -112.26824653 482.60932809 C-108.8725679 482.61456439 -105.47694221 482.61531279 -102.0812633 482.61413372 C-98.41792086 482.61392965 -94.75458632 482.61944902 -91.09124756 482.62419128 C-83.91532704 482.63249693 -76.73941473 482.63524608 -69.56348981 482.63580366 C-63.73081081 482.63627884 -57.89813453 482.63833366 -52.06545639 482.64150429 C-35.52919688 482.65031042 -18.99294386 482.6549237 -2.45668198 482.65417381 C-1.11953309 482.65411388 -1.11953309 482.65411388 0.24462891 482.65405273 C1.13714966 482.65401185 2.02967041 482.65397097 2.94923724 482.65392885 C17.4162878 482.65352234 31.88331234 482.66309343 46.35035537 482.6771911 C61.20456233 482.69155187 76.05875659 482.69846146 90.91297066 482.69759732 C99.25267964 482.69726526 107.59236133 482.70001635 115.93206406 482.71077538 C123.03209439 482.71987641 130.13208507 482.72205888 137.23211871 482.71526595 C140.85422502 482.71199881 144.47625524 482.71195106 148.09835434 482.7206192 C152.02588117 482.72992159 155.95329663 482.72371325 159.88082886 482.71598816 C161.59605486 482.7237035 161.59605486 482.7237035 163.34593189 482.73157471 C173.36618041 482.76118721 173.36618041 482.76118721 181.890625 478.03125 C186.7550635 472.33290776 187.20240439 468.07791458 187.20675945 460.75105476 C187.20938901 459.75278297 187.20938901 459.75278297 187.21207169 458.73434407 C187.21672998 456.50045702 187.21426663 454.26663512 187.21183777 452.03274536 C187.21370582 450.41649665 187.21600651 448.80024839 187.21870309 447.18400085 C187.22482812 442.73938981 187.22468667 438.29479755 187.22350872 433.85018325 C187.22330489 429.05799681 187.22882173 424.26581644 187.23356628 419.47363281 C187.24187711 410.08387354 187.24462132 400.69412054 187.24517866 391.3043579 C187.24565359 383.67343328 187.24770718 376.04251073 187.25087929 368.41158676 C187.25968683 346.78427496 187.26429848 325.15696812 187.26354881 303.52965452 C187.26350886 302.36341833 187.2634689 301.19718215 187.26342773 299.99560547 C187.26338685 298.82794816 187.26334597 297.66029085 187.26330385 296.45724998 C187.26289729 277.52829881 187.2724691 258.59936752 187.2865661 239.67042209 C187.30092116 220.24192538 187.30783677 200.81343837 187.30697232 181.38493621 C187.30664007 170.47422755 187.30939976 159.56353974 187.32015038 148.65283585 C187.32924391 139.3642598 187.33144006 130.07571406 187.32464095 120.7871355 C187.32137002 116.04708863 187.32133971 111.30709994 187.3299942 106.56705856 C187.33783476 102.22823115 187.33645286 97.88950827 187.32771007 93.55068348 C187.32616969 91.98073178 187.32801143 90.41077237 187.33357015 88.84082974 C187.34062702 86.70646918 187.33533934 84.57247566 187.32701397 82.43812752 C187.32723134 81.25269297 187.32744871 80.06725842 187.32767266 78.84590161 C186.94010381 73.6008964 186.11502073 69.66516815 182.640625 65.65625 C176.66348596 60.55381424 171.9022571 60.31124884 164.265625 60.40625 C163.57275391 60.41076172 162.87988281 60.41527344 162.16601562 60.41992188 C160.47001432 60.43161844 158.77405797 60.44955076 157.078125 60.46875 C157.07665979 61.68152667 157.07665979 61.68152667 157.07516497 62.91880387 C157.01692766 110.80898076 156.94315725 158.69911216 156.84913872 206.58923287 C156.83787018 212.33593693 156.82673179 218.08264124 156.81567383 223.8293457 C156.81347014 224.97343961 156.81126646 226.11753351 156.808996 227.29629693 C156.77359714 245.83567663 156.74874763 264.37505629 156.72777798 282.91445728 C156.70603654 301.9292272 156.67300192 320.94395316 156.62942344 339.9586857 C156.60287816 351.69737306 156.58520398 363.43600561 156.57877896 375.17472152 C156.57353387 383.21794073 156.55734656 391.2610909 156.53245934 399.30427315 C156.51841416 403.94886241 156.50928476 408.593328 156.51311684 413.23793983 C156.51651676 417.48749552 156.50622205 421.73678665 156.48488948 425.98628811 C156.47960323 427.52606171 156.47940583 429.06586267 156.48472937 430.60563614 C156.49121815 432.69476108 156.47937597 434.78300639 156.46288586 436.87205791 C156.46098725 438.0336224 156.45908865 439.1951869 156.45713252 440.39195031 C155.91923179 444.7586521 154.31624003 447.39060733 151.02403259 450.25744057 C146.66849974 452.04836505 142.61002973 451.88214463 137.94360352 451.84970093 C136.91380403 451.8543809 135.88400454 451.85906087 134.822999 451.86388266 C131.36754595 451.87586185 127.91248734 451.86636376 124.45703125 451.85693359 C121.98167692 451.86099798 119.50632441 451.86633911 117.03097534 451.87286377 C111.00269881 451.8851361 104.97457745 451.88332208 98.94630694 451.87462585 C94.0470505 451.86785087 89.14782546 451.86693177 84.24856567 451.8701973 C83.20266072 451.87088684 83.20266072 451.87088684 82.13562638 451.87159032 C80.71913869 451.8725495 79.30265102 451.87352214 77.88616335 451.8745081 C64.60354171 451.88306287 51.32098218 451.87322651 38.03837073 451.857107 C26.64110927 451.84370372 15.24393949 451.84603179 3.84667969 451.85986328 C-9.38838873 451.87591757 -22.62340271 451.88223888 -35.8584795 451.87302649 C-37.26975822 451.87207084 -38.68103694 451.87112773 -40.09231567 451.8701973 C-41.13388161 451.86950306 -41.13388161 451.86950306 -42.19648927 451.86879479 C-47.08989896 451.86620445 -51.98327412 451.87057685 -56.87667847 451.87763596 C-63.46271689 451.88692796 -70.04860882 451.880313 -76.63463974 451.86295319 C-79.05460192 451.85897975 -81.47457864 451.86013696 -83.89453506 451.86674118 C-87.1923396 451.87491265 -90.48958483 451.86468779 -93.78735352 451.84970093 C-94.74989768 451.85639309 -95.71244184 451.86308526 -96.70415401 451.86998022 C-101.54519653 451.82717115 -105.10622068 451.79139744 -108.921875 448.46875 C-111.80413559 444.51724429 -112.29870479 441.72428497 -112.30663586 436.87205791 C-112.31178576 436.21964157 -112.31693567 435.56722523 -112.32224163 434.89503869 C-112.3358738 432.70560568 -112.32817213 430.51677111 -112.32060242 428.32731628 C-112.32604091 426.74319758 -112.33279207 425.15908292 -112.34074432 423.57497483 C-112.35880321 419.21942164 -112.35820846 414.86403866 -112.35461485 410.50845683 C-112.353992 405.81249449 -112.37060167 401.11658977 -112.38513184 396.4206543 C-112.40794409 388.28378564 -112.41980747 380.14695987 -112.42426109 372.01006126 C-112.43071608 360.24544355 -112.45364199 348.48090345 -112.48060439 336.71631698 C-112.52389967 317.62965517 -112.55385077 298.54299662 -112.57543945 279.45629883 C-112.59644093 260.9139648 -112.62370876 242.37165748 -112.65942383 223.8293457 C-112.66272207 222.11528717 -112.66272207 222.11528717 -112.66608693 220.36660119 C-112.67715638 214.63405487 -112.68834923 208.9015088 -112.69960344 203.16896284 C-112.79282735 155.60224884 -112.86440733 108.0355197 -112.921875 60.46875 C-115.27636175 60.41420591 -117.62955375 60.3748221 -119.984375 60.34375 C-121.29535156 60.32054687 -122.60632813 60.29734375 -123.95703125 60.2734375 C-129.47234045 60.54512761 -133.51827233 61.25229435 -137.734375 64.90625 Z M-82.921875 60.46875 C-82.921875 179.92875 -82.921875 299.38875 -82.921875 422.46875 C-13.621875 422.46875 55.678125 422.46875 127.078125 422.46875 C127.078125 303.00875 127.078125 183.54875 127.078125 60.46875 C117.178125 60.46875 107.278125 60.46875 97.078125 60.46875 C96.86860131 67.15424029 96.86860131 67.15424029 96.69018555 73.84057617 C96.33859684 82.76203256 96.33859684 82.76203256 93.078125 86.46875 C89.42921001 89.0529653 86.95122908 89.8444682 82.49926758 89.84970093 C81.38895172 89.8581604 80.27863586 89.86661987 79.13467407 89.87533569 C77.92620819 89.869263 76.71774231 89.86319031 75.47265625 89.85693359 C74.19248627 89.86219055 72.91231628 89.86744751 71.59335327 89.87286377 C68.08920617 89.88651952 64.58532458 89.88124608 61.08117294 89.87172651 C57.41063481 89.86412083 53.74011912 89.87117805 50.06958008 89.87588501 C43.90604581 89.88133992 37.74261944 89.87415793 31.57910156 89.85986328 C24.45752597 89.8435372 17.33620806 89.8488259 10.21463871 89.8653425 C4.09559203 89.87896494 -2.02337717 89.88087334 -8.14243412 89.87302649 C-11.7950621 89.86835412 -15.44756905 89.86771306 -19.10018921 89.87763596 C-23.17241631 89.88792642 -27.24420053 89.87365592 -31.31640625 89.85693359 C-33.12910507 89.86604263 -33.12910507 89.86604263 -34.97842407 89.87533569 C-36.08873993 89.86687622 -37.19905579 89.85841675 -38.34301758 89.84970093 C-39.30532791 89.84856985 -40.26763824 89.84743877 -41.2591095 89.84627342 C-45.33637619 89.26820387 -47.99716863 87.52001662 -50.69140625 84.45703125 C-52.55379623 79.93408415 -52.49457064 75.50218285 -52.609375 70.65625 C-52.7125 67.294375 -52.815625 63.9325 -52.921875 60.46875 C-62.821875 60.46875 -72.721875 60.46875 -82.921875 60.46875 Z " fill="#000000" transform="translate(172.921875,-0.46875)"/>
<path d="M0 0 C0.81361496 -0.0066568 1.62722992 -0.0133136 2.46549988 -0.02017212 C4.18083449 -0.03025888 5.89620803 -0.03499038 7.61157227 -0.03466797 C10.21242196 -0.03903222 12.8115603 -0.07536735 15.41210938 -0.11328125 C31.49895318 -0.22298802 31.49895318 -0.22298802 38.41796875 4.3359375 C39.13170654 4.78146973 39.84544434 5.22700195 40.58081055 5.68603516 C47.90340434 10.44385334 53.23474084 17.90824523 55.41796875 26.3359375 C55.76650207 30.48402765 55.80898128 34.62903827 55.86035156 38.7901001 C55.88322739 40.05888024 55.90610321 41.32766038 55.92967224 42.63488841 C55.99230982 46.15298389 56.04235849 49.6711604 56.08987141 53.18948865 C56.13212036 56.21159475 56.18139831 59.23357241 56.23036742 62.25557587 C56.69744111 91.26486565 56.93999673 120.27761938 57.13659668 149.28984451 C57.16283992 153.09313559 57.18959055 156.89642272 57.21679688 160.69970703 C57.22353518 161.64465588 57.23027349 162.58960474 57.237216 163.5631884 C57.34117999 177.71758762 57.53934049 191.86851557 57.79101562 206.02099609 C58.17486346 227.90160625 58.41768086 249.77985749 58.41796875 271.6640625 C58.4181516 272.54988644 58.41833445 273.43571038 58.41852283 274.34837747 C58.39953102 332.08705828 56.56811961 398.25736815 21.41796875 447.3359375 C16.18324513 451.4016588 10.77602388 451.08648132 4.41796875 450.3359375 C-1.42975817 447.82976882 -2.97800893 443.78766675 -5.58203125 438.3359375 C-6.30440885 436.88398043 -6.30440885 436.88398043 -7.04137993 435.40269089 C-33.1193367 382.33279183 -37.51761962 330.12031129 -37.5546875 272.0625 C-37.55536395 271.17817791 -37.55604041 270.29385582 -37.55673736 269.38273609 C-37.56420705 247.45976522 -37.30676545 225.54209087 -36.94323687 203.6224719 C-36.70842292 189.44534391 -36.55708493 175.26966137 -36.47680664 161.09082031 C-36.47144927 160.14799232 -36.4660919 159.20516433 -36.46057219 158.2337658 C-36.43925339 154.44116208 -36.41827742 150.64855669 -36.39779544 146.85594837 C-36.30364246 129.65366066 -36.15609981 112.45175052 -35.9921875 95.25 C-35.98403988 94.38450439 -35.97589226 93.51900877 -35.96749774 92.62728602 C-35.86519734 81.8652377 -35.73696798 71.10401934 -35.56497002 60.34285164 C-35.51781445 57.35691626 -35.47940676 54.37108107 -35.44914246 51.38492775 C-35.40734855 47.31308471 -35.33453717 43.24239318 -35.25819397 39.17105103 C-35.25006386 37.99205282 -35.24193376 36.81305461 -35.23355728 35.59832919 C-34.98966176 25.25342765 -31.79651804 16.88812367 -24.58203125 9.3359375 C-16.76663221 2.86977673 -10.08641882 0.02907868 0 0 Z M-3.58203125 32.3359375 C-4.64132305 35.51381291 -4.69662064 37.76182693 -4.6796875 41.09765625 C-4.67718994 42.10530029 -4.67469238 43.11294434 -4.67211914 44.15112305 C-4.66301514 45.42898682 -4.65391113 46.70685059 -4.64453125 48.0234375 C-4.62390625 52.0865625 -4.60328125 56.1496875 -4.58203125 60.3359375 C5.31796875 60.3359375 15.21796875 60.3359375 25.41796875 60.3359375 C25.47984375 54.2721875 25.47984375 54.2721875 25.54296875 48.0859375 C25.57028076 46.18279785 25.57028076 46.18279785 25.59814453 44.24121094 C25.60313965 43.23606445 25.60813477 42.23091797 25.61328125 41.1953125 C25.62375488 40.16889648 25.63422852 39.14248047 25.64501953 38.08496094 C25.41229692 35.26726565 25.02253486 33.65179237 23.41796875 31.3359375 C19.11734856 29.90239744 14.98491465 30.15162536 10.48046875 30.1484375 C9.57361328 30.13619141 8.66675781 30.12394531 7.73242188 30.11132812 C6.85650391 30.10939453 5.98058594 30.10746094 5.078125 30.10546875 C4.28027588 30.10135986 3.48242676 30.09725098 2.66040039 30.09301758 C0.12202443 30.36799679 -1.45508737 30.92725861 -3.58203125 32.3359375 Z M-4.58203125 90.3359375 C-4.58203125 100.2359375 -4.58203125 110.1359375 -4.58203125 120.3359375 C5.31796875 120.3359375 15.21796875 120.3359375 25.41796875 120.3359375 C25.41796875 110.4359375 25.41796875 100.5359375 25.41796875 90.3359375 C15.51796875 90.3359375 5.61796875 90.3359375 -4.58203125 90.3359375 Z M-4.58203125 150.3359375 C-4.58203125 209.7359375 -4.58203125 269.1359375 -4.58203125 330.3359375 C5.31796875 330.3359375 15.21796875 330.3359375 25.41796875 330.3359375 C25.41796875 270.9359375 25.41796875 211.5359375 25.41796875 150.3359375 C15.51796875 150.3359375 5.61796875 150.3359375 -4.58203125 150.3359375 Z M2.41796875 360.3359375 C4.01242568 368.59812343 6.67814944 376.39882736 9.41796875 384.3359375 C10.07796875 384.3359375 10.73796875 384.3359375 11.41796875 384.3359375 C12.59197463 380.90089978 13.75590084 377.46253036 14.91796875 374.0234375 C15.25183594 373.04697266 15.58570313 372.07050781 15.9296875 371.06445312 C16.24550781 370.12666016 16.56132812 369.18886719 16.88671875 368.22265625 C17.17998047 367.35858154 17.47324219 366.49450684 17.77539062 365.60424805 C18.55424847 363.24779647 18.55424847 363.24779647 18.41796875 360.3359375 C13.13796875 360.3359375 7.85796875 360.3359375 2.41796875 360.3359375 Z " fill="#000000" transform="translate(456.58203125,61.6640625)"/>
<path d="M0 0 C5.73642564 3.78082599 7.88019192 8.93354757 10.2421875 15.109375 C10.57725311 15.96609802 10.91231873 16.82282104 11.25753784 17.70550537 C16.31999544 30.72963408 21.18697107 43.83081844 26.07507324 56.92114258 C27.6720774 61.19622987 29.27241289 65.47007128 30.87237072 69.74405384 C32.14904228 73.15499332 33.42448016 76.56638227 34.69685364 79.97892761 C36.71151902 85.38043723 38.72802549 90.78044424 40.80737305 96.1574707 C41.09430023 96.90377747 41.38122742 97.65008423 41.67684937 98.41900635 C42.37904436 100.23924739 43.08906124 102.05646634 43.80004883 103.87329102 C45.60923072 109.47101416 45.72203951 114.27439683 43.625 119.75 C40.32238114 123.38288075 37.1409767 124.6354666 32.3125 125.25 C27.9041437 124.70862291 24.82062255 124.05214764 21.75 120.8125 C18.32101742 114.42641318 16.0399684 107.68240519 13.75 100.8125 C-0.11 100.4825 -13.97 100.1525 -28.25 99.8125 C-29.24 103.1125 -30.23 106.4125 -31.25 109.8125 C-32.11758601 111.98754056 -33.04562818 114.14062127 -34.0625 116.25 C-34.52269531 117.23871094 -34.98289063 118.22742188 -35.45703125 119.24609375 C-37.67890318 122.42642024 -39.66579001 123.41683738 -43.25 124.8125 C-48.46531417 125.37128366 -51.85682104 124.70800431 -56.25 121.8125 C-59.70815043 118.00853453 -59.53535983 114.3695363 -59.47103882 109.48373413 C-59.12638935 105.31867642 -57.82097113 101.77980774 -56.26953125 97.92578125 C-55.94902802 97.08967819 -55.62852478 96.25357513 -55.29830933 95.39213562 C-54.2353833 92.63006458 -53.14925353 89.87777347 -52.0625 87.125 C-51.30612247 85.17574105 -50.55135731 83.22585579 -49.7980957 81.27539062 C-48.59270826 78.15694967 -47.38526359 75.03939339 -46.17112732 71.92434692 C-43.1621036 64.20265337 -40.21691409 56.45833362 -37.30285835 48.70046043 C-35.64986015 44.30237336 -33.98959415 39.90701983 -32.3309021 35.51107788 C-31.40430883 33.05157437 -30.48016214 30.5911477 -29.5585022 28.12979126 C-28.25996646 24.66649123 -26.94973956 21.20782968 -25.63671875 17.75 C-25.25192352 16.71550217 -24.8671283 15.68100433 -24.47067261 14.61515808 C-22.14589315 8.5331467 -20.11105359 3.69819441 -14.5 0 C-9.27097821 -1.91060412 -5.22902179 -1.91060412 0 0 Z M-7.25 45.8125 C-10.42703461 51.82918502 -12.81923762 57.87487236 -15 64.3125 C-16.0725 67.4475 -17.145 70.5825 -18.25 73.8125 C-10.99 73.8125 -3.73 73.8125 3.75 73.8125 C1.54026633 66.24766609 1.54026633 66.24766609 -1.07421875 58.8984375 C-1.53344727 57.72861328 -1.53344727 57.72861328 -2.00195312 56.53515625 C-2.46504883 55.37306641 -2.46504883 55.37306641 -2.9375 54.1875 C-3.25783203 53.37410156 -3.57816406 52.56070313 -3.90820312 51.72265625 C-4.68519691 49.75117949 -5.46706853 47.78162627 -6.25 45.8125 C-6.58 45.8125 -6.91 45.8125 -7.25 45.8125 Z " fill="#000000" transform="translate(176.25,268.1875)"/>
<path d="M0 0 C1.1088707 -0.00990463 2.21774139 -0.01980927 3.36021423 -0.03001404 C5.17055649 -0.02326157 5.17055649 -0.02326157 7.01747131 -0.01637268 C8.296035 -0.02323593 9.57459869 -0.03009918 10.89190674 -0.03717041 C14.39197481 -0.05509243 17.89179204 -0.0539353 21.39189219 -0.04822803 C24.31682719 -0.04513467 27.2417141 -0.05123027 30.16664225 -0.05726677 C37.06845679 -0.07130732 43.97014753 -0.06975476 50.8719635 -0.05836487 C57.98562094 -0.0468846 65.09890134 -0.06095856 72.2125091 -0.08776134 C78.32648047 -0.1099328 84.44033362 -0.11655248 90.55434233 -0.11068493 C94.2031387 -0.1073175 97.8516934 -0.10971587 101.50045586 -0.12693596 C105.57017188 -0.14530495 109.63915637 -0.13120332 113.70887756 -0.11402893 C115.51618347 -0.12853088 115.51618347 -0.12853088 117.36000061 -0.14332581 C123.66530589 -0.08754838 127.68100034 0.05650601 132.4278717 4.38768005 C136.48417569 9.61027863 136.20184714 15.04108148 135.4278717 21.38768005 C133.24027367 26.00594257 130.92699743 28.10479822 126.4278717 30.38768005 C123.76789951 30.76799679 123.76789951 30.76799679 120.85574341 30.77536011 C119.19243736 30.79021706 119.19243736 30.79021706 117.49552917 30.80537415 C116.28863434 30.8008725 115.0817395 30.79637085 113.83827209 30.79173279 C112.5597084 30.79859604 111.28114471 30.80545929 109.96383667 30.81253052 C106.4637686 30.83045254 102.96395136 30.82929541 99.46385121 30.82358813 C96.53891622 30.82049478 93.61402931 30.82659037 90.68910116 30.83262688 C83.78728662 30.84666743 76.88559587 30.84511487 69.98377991 30.83372498 C62.87012246 30.8222447 55.75684207 30.83631867 48.64323431 30.86312145 C42.52926294 30.88529291 36.41540979 30.89191258 30.30140108 30.88604504 C26.65260471 30.88267761 23.00405001 30.88507597 19.35528755 30.90229607 C15.28557153 30.92066505 11.21658704 30.90656342 7.14686584 30.88938904 C5.33955994 30.90389099 5.33955994 30.90389099 3.4957428 30.91868591 C-2.80956248 30.86290849 -6.82525693 30.71885409 -11.5721283 26.38768005 C-15.62843228 21.16508148 -15.34610373 15.73427863 -14.5721283 9.38768005 C-11.49275947 2.8867903 -7.15706033 0.01809646 0 0 Z " fill="#000000" transform="translate(134.57212829589844,179.61231994628906)"/>
<path d="M0 0 C1.1088707 -0.00990463 2.21774139 -0.01980927 3.36021423 -0.03001404 C5.17055649 -0.02326157 5.17055649 -0.02326157 7.01747131 -0.01637268 C8.296035 -0.02323593 9.57459869 -0.03009918 10.89190674 -0.03717041 C14.39197481 -0.05509243 17.89179204 -0.0539353 21.39189219 -0.04822803 C24.31682719 -0.04513467 27.2417141 -0.05123027 30.16664225 -0.05726677 C37.06845679 -0.07130732 43.97014753 -0.06975476 50.8719635 -0.05836487 C57.98562094 -0.0468846 65.09890134 -0.06095856 72.2125091 -0.08776134 C78.32648047 -0.1099328 84.44033362 -0.11655248 90.55434233 -0.11068493 C94.2031387 -0.1073175 97.8516934 -0.10971587 101.50045586 -0.12693596 C105.57017188 -0.14530495 109.63915637 -0.13120332 113.70887756 -0.11402893 C115.51618347 -0.12853088 115.51618347 -0.12853088 117.36000061 -0.14332581 C123.66530589 -0.08754838 127.68100034 0.05650601 132.4278717 4.38768005 C136.48417569 9.61027863 136.20184714 15.04108148 135.4278717 21.38768005 C133.24027367 26.00594257 130.92699743 28.10479822 126.4278717 30.38768005 C123.76789951 30.76799679 123.76789951 30.76799679 120.85574341 30.77536011 C119.19243736 30.79021706 119.19243736 30.79021706 117.49552917 30.80537415 C116.28863434 30.8008725 115.0817395 30.79637085 113.83827209 30.79173279 C112.5597084 30.79859604 111.28114471 30.80545929 109.96383667 30.81253052 C106.4637686 30.83045254 102.96395136 30.82929541 99.46385121 30.82358813 C96.53891622 30.82049478 93.61402931 30.82659037 90.68910116 30.83262688 C83.78728662 30.84666743 76.88559587 30.84511487 69.98377991 30.83372498 C62.87012246 30.8222447 55.75684207 30.83631867 48.64323431 30.86312145 C42.52926294 30.88529291 36.41540979 30.89191258 30.30140108 30.88604504 C26.65260471 30.88267761 23.00405001 30.88507597 19.35528755 30.90229607 C15.28557153 30.92066505 11.21658704 30.90656342 7.14686584 30.88938904 C5.33955994 30.90389099 5.33955994 30.90389099 3.4957428 30.91868591 C-2.80956248 30.86290849 -6.82525693 30.71885409 -11.5721283 26.38768005 C-15.62843228 21.16508148 -15.34610373 15.73427863 -14.5721283 9.38768005 C-11.49275947 2.8867903 -7.15706033 0.01809646 0 0 Z " fill="#000000" transform="translate(134.57212829589844,119.61231994628906)"/>
<path d="M0 0 C4.34181081 2.25440177 7.23485471 4.39100952 9 9 C9.23398604 12.68138034 9.17415011 16.31704771 9 20 C9.73605469 19.96519531 10.47210938 19.93039062 11.23046875 19.89453125 C21.27740033 19.61581848 21.27740033 19.61581848 25 23 C27.73525327 26.25273362 28.90804758 28.26438066 29.4375 32.5 C28.84348952 37.25208386 27.58576214 40.56290306 24 43.8125 C20.52734647 45.87438803 17.76250016 46.1137987 13.8125 46.0625 C12.91144531 46.05347656 12.01039063 46.04445313 11.08203125 46.03515625 C10.39496094 46.02355469 9.70789063 46.01195312 9 46 C9.05220703 47.10408203 9.05220703 47.10408203 9.10546875 48.23046875 C9.38418152 58.27740033 9.38418152 58.27740033 6 62 C2.74726638 64.73525327 0.73561934 65.90804758 -3.5 66.4375 C-8.25208386 65.84348952 -11.56290306 64.58576214 -14.8125 61 C-16.87438803 57.52734647 -17.1137987 54.76250016 -17.0625 50.8125 C-17.05347656 49.91144531 -17.04445312 49.01039063 -17.03515625 48.08203125 C-17.02355469 47.39496094 -17.01195312 46.70789063 -17 46 C-17.97839844 46.05220703 -17.97839844 46.05220703 -18.9765625 46.10546875 C-24.43480317 46.2745293 -28.33460121 46.186126 -33 43 C-35.93666818 39.75953856 -36.89954239 37.06485065 -37.3125 32.6875 C-36.86587899 27.41737214 -34.79240897 24.6294627 -30.9375 21.125 C-26.37169703 19.37639461 -21.83226022 19.77150433 -17 20 C-17.03480469 19.34773438 -17.06960937 18.69546875 -17.10546875 18.0234375 C-17.2745293 12.56519683 -17.186126 8.66539879 -14 4 C-9.70690049 0.10937857 -5.70430943 -0.48341605 0 0 Z " fill="#000000" transform="translate(244,240)"/>
</svg>
