<?xml version="1.0" encoding="UTF-8"?>
<svg version="1.1" xmlns="http://www.w3.org/2000/svg" width="50" height="50">
<path d="M0 0 C3.67398757 -0.3514249 5.46495539 -0.36814996 8.5546875 1.7578125 C9.32039063 2.53898438 10.08609375 3.32015625 10.875 4.125 C12.04675781 5.27355469 12.04675781 5.27355469 13.2421875 6.4453125 C15.36814996 9.53504461 15.3514249 11.32601243 15 15 C14.29190186 15.21841553 13.58380371 15.43683105 12.85424805 15.66186523 C9.33430871 17.31209083 6.98968932 19.65209444 4.33203125 22.41015625 C3.81114426 22.93765976 3.29025726 23.46516327 2.75358582 24.00865173 C1.09926517 25.6862812 -0.54451381 27.373775 -2.1875 29.0625 C-3.8429184 30.75299185 -5.50047014 32.44131374 -7.16072083 34.12705994 C-8.19118765 35.17449503 -9.21855153 36.22499372 -10.24247742 37.27882385 C-13.68176429 40.79041152 -14.91702837 41.9312399 -19.9375 42.25 C-22.40763496 42.19620396 -23.77295937 42.11352032 -26 41 C-27.69056786 37.61886429 -27.89281994 34.60106763 -27 31 C-21.81380152 23.38442345 -14.09474567 17.0838764 -7.5 10.71484375 C-6.26636719 9.50248047 -6.26636719 9.50248047 -5.0078125 8.265625 C-4.26160645 7.54149414 -3.51540039 6.81736328 -2.74658203 6.07128906 C-0.97452216 3.96978558 -0.38673444 2.68670696 0 0 Z M5 5 C-0.01202555 7.98334854 -3.38748484 11.43951988 -7 16 C-4.87561661 16.08078641 -2.7503677 16.13909141 -0.625 16.1875 C0.55835938 16.22230469 1.74171875 16.25710937 2.9609375 16.29296875 C3.96382812 16.19628906 4.96671875 16.09960938 6 16 C6.66 15.01 7.32 14.02 8 13 C7.34 11.68 6.68 10.36 6 9 C6.66 8.34 7.32 7.68 8 7 C7.01 6.34 6.02 5.68 5 5 Z M-17.8125 24.6875 C-18.42883301 25.31221191 -19.04516602 25.93692383 -19.68017578 26.58056641 C-23.02094221 30.22054528 -23.02094221 30.22054528 -24.51171875 34.83203125 C-24.15422569 37.19627888 -24.15422569 37.19627888 -22 39 C-19.62225568 39.52961433 -19.62225568 39.52961433 -17 39 C-14.47956197 37.18521103 -14.47956197 37.18521103 -12.13671875 34.66015625 C-11.25048828 33.76232422 -10.36425781 32.86449219 -9.45117188 31.93945312 C-8.53916016 30.99005859 -7.62714844 30.04066406 -6.6875 29.0625 C-5.74784757 28.10633688 -4.8071033 27.15124546 -3.86523438 26.19726562 C0.47473073 22.55352065 0.47473073 22.55352065 3 18 C-6.34998765 16.04302584 -11.35313136 18.11472132 -17.8125 24.6875 Z " fill="#000000" transform="translate(30,4)"/>
<path d="M0 0 C2.375 0.25 2.375 0.25 5 1 C7.64869897 4.27934158 7.37509161 7.94901058 7 12 C4 14 4 14 0.875 13.6875 C-2 13 -2 13 -3 12 C-3.38606152 6.98120022 -2.97663853 4.09287798 0 0 Z M1 4 C0.67 5.98 0.34 7.96 0 10 C1.32 10 2.64 10 4 10 C3.67 8.02 3.34 6.04 3 4 C2.34 4 1.68 4 1 4 Z " fill="#000000" transform="translate(40,27)"/>
</svg>
