<?xml version="1.0" encoding="UTF-8"?>
<svg version="1.1" xmlns="http://www.w3.org/2000/svg" width="64" height="64">
<path d="M0 0 C3.45211024 2.30140683 4.9826251 4.1448704 6.8125 7.875 C7.66156662 12.21563652 7.16712283 15.13738452 5.25 19.125 C3.01125404 21.65076467 2.07098488 22.34508428 -0.8125 23.6875 C-3.17425226 24.8859263 -4.00853203 25.39187922 -4.94140625 27.91015625 C-5.23186601 29.47759224 -5.49862173 31.04959587 -5.7421875 32.625 C-6.60782163 36.99873032 -9.04507187 39.86697518 -12.3125 42.75 C-16.63098642 44.43984251 -20.6142052 44.53460983 -25.1875 43.875 C-28.82467638 42.08947705 -30.64931576 40.92574066 -32.5 37.3125 C-34.50090079 34.42230997 -35.40198974 34.31144979 -38.6875 33.375 C-42.03821934 32.41453322 -42.97600799 32.12381413 -45.3125 29.375 C-46.1875 26.875 -46.1875 26.875 -45.1875 23.875 C-42.5475 23.875 -39.9075 23.875 -37.1875 23.875 C-37.373125 23.09125 -37.55875 22.3075 -37.75 21.5 C-38.1875 18.875 -38.1875 18.875 -37.1875 16.875 C-32.4375 17.625 -32.4375 17.625 -30.1875 19.875 C-28.0355563 16.64708445 -27.98663557 15.59099191 -28.1875 11.875 C-24.89773192 10.77841064 -23.47446233 11.07546862 -20.1875 11.875 C-19.96835937 11.27171875 -19.74921875 10.6684375 -19.5234375 10.046875 C-15.82913947 0.73604257 -10.17439336 -3.59096236 0 0 Z M-15.1875 4.875 C-16.1563059 8.00765479 -16.1563059 8.00765479 -16.1875 10.875 C-15.5275 10.875 -14.8675 10.875 -14.1875 10.875 C-14.1875 11.535 -14.1875 12.195 -14.1875 12.875 C-15.5075 12.875 -16.8275 12.875 -18.1875 12.875 C-17.5275 14.525 -16.8675 16.175 -16.1875 17.875 C-16.8475 17.875 -17.5075 17.875 -18.1875 17.875 C-18.1875 18.535 -18.1875 19.195 -18.1875 19.875 C-17.1975 20.535 -16.2075 21.195 -15.1875 21.875 C-15.1875 22.865 -15.1875 23.855 -15.1875 24.875 C-17.375 25.1875 -17.375 25.1875 -20.1875 24.875 C-22.875 22.375 -22.875 22.375 -25.1875 19.875 C-25.8475 19.875 -26.5075 19.875 -27.1875 19.875 C-26.96983948 23.68405906 -26.19355451 24.86866389 -23.5 27.6875 C-19.93241679 30.04345118 -18.35510893 30.37114392 -14.1875 29.875 C-14.1875 30.535 -14.1875 31.195 -14.1875 31.875 C-15.58559472 31.61609357 -16.98092142 31.34222539 -18.375 31.0625 C-19.15230469 30.91167969 -19.92960937 30.76085937 -20.73046875 30.60546875 C-23.1875 29.875 -23.1875 29.875 -25.5 28.34375 C-28.9563471 26.45481612 -32.1504759 26.31643143 -36 26.1875 C-37.03930664 26.13625977 -37.03930664 26.13625977 -38.09960938 26.08398438 C-39.79502849 26.00213656 -41.49123458 25.93687635 -43.1875 25.875 C-43.01942529 27.85771116 -43.01942529 27.85771116 -42.1875 29.875 C-40.26079529 30.76017794 -40.26079529 30.76017794 -37.9375 31.1875 C-33.29021238 32.51319219 -31.72243946 34.279776 -29.21875 38.2890625 C-27.78241288 40.49797488 -26.7447467 41.21742228 -24.1875 41.875 C-19.49049108 42.32954925 -17.15240083 42.3301419 -12.875 40.3125 C-8.7818935 36.6001476 -7.53225721 32.66146919 -6.5 27.3125 C-4.86877015 23.04023134 -2.80366669 21.68263849 0.9375 19.234375 C3.08490765 17.8434379 3.08490765 17.8434379 4.8125 14.875 C5.3315051 10.98246173 4.95009843 9.14000438 3.125 5.625 C0.10197074 2.03004628 -2.08311887 1.19875094 -6.625 0.5 C-10.34137074 1.04385913 -12.36191298 2.4347203 -15.1875 4.875 Z M-26.1875 13.875 C-25.92073796 15.85991642 -25.92073796 15.85991642 -25.1875 17.875 C-24.1975 18.205 -23.2075 18.535 -22.1875 18.875 C-20.5 21.4375 -20.5 21.4375 -19.1875 23.875 C-18.1975 23.545 -17.2075 23.215 -16.1875 22.875 C-17.1775 22.215 -18.1675 21.555 -19.1875 20.875 C-20.70834223 18.62679844 -21.90038807 16.27169118 -23.1875 13.875 C-24.1775 13.875 -25.1675 13.875 -26.1875 13.875 Z M-35.1875 18.875 C-35.4856424 22.6513932 -35.4856424 22.6513932 -34.1875 24.875 C-32.2075 24.875 -30.2275 24.875 -28.1875 24.875 C-28.97125 24.25625 -29.755 23.6375 -30.5625 23 C-33.1875 20.875 -33.1875 20.875 -35.1875 18.875 Z " fill="#000000" transform="translate(51.1875,11.125)"/>
<path d="M0 0 C0.99 0 1.98 0 3 0 C3 6.27 3 12.54 3 19 C2.01 19 1.02 19 0 19 C0 12.73 0 6.46 0 0 Z " fill="#000000" transform="translate(53,38)"/>
<path d="M0 0 C2.97 0 5.94 0 9 0 C9 0.66 9 1.32 9 2 C6.03 2 3.06 2 0 2 C0 1.34 0 0.68 0 0 Z " fill="#000000" transform="translate(8,14)"/>
<path d="M0 0 C2.97 0 5.94 0 9 0 C9 0.66 9 1.32 9 2 C6.03 2 3.06 2 0 2 C0 1.34 0 0.68 0 0 Z " fill="#000000" transform="translate(8,11)"/>
<path d="M0 0 C1.32 1.32 2.64 2.64 4 4 C2.68 4 1.36 4 0 4 C0 2.68 0 1.36 0 0 Z " fill="#000000" transform="translate(1,59)"/>
<path d="M0 0 C0.33 1.32 0.66 2.64 1 4 C-0.32 3.67 -1.64 3.34 -3 3 C-2.01 2.01 -1.02 1.02 0 0 Z " fill="#000000" transform="translate(62,59)"/>
<path d="M0 0 C1.32 0 2.64 0 4 0 C3.67 1.32 3.34 2.64 3 4 C2.01 2.68 1.02 1.36 0 0 Z " fill="#000000" transform="translate(59,1)"/>
<path d="M0 0 C1.32 0.33 2.64 0.66 4 1 C2.68 1.99 1.36 2.98 0 4 C0 2.68 0 1.36 0 0 Z " fill="#000000" transform="translate(1,1)"/>
<path d="M0 0 C1.98 0 3.96 0 6 0 C6 0.33 6 0.66 6 1 C4.02 1 2.04 1 0 1 C0 0.67 0 0.34 0 0 Z " fill="#000000" transform="translate(8,8)"/>
</svg>
