<?xml version="1.0" encoding="UTF-8"?>
<svg version="1.1" xmlns="http://www.w3.org/2000/svg" width="50" height="50">
<path d="M0 0 C3.79594117 0.56426152 5.58710633 2.18251862 8.25 4.875 C9.30960938 5.92300781 9.30960938 5.92300781 10.390625 6.9921875 C12 9 12 9 12 12 C11.236875 12.268125 10.47375 12.53625 9.6875 12.8125 C7.12619116 13.94424112 5.80307062 14.91223401 4 17 C4.495 17.8971875 4.495 17.8971875 5 18.8125 C6 21 6 21 6 24 C5.26354248 23.91427734 4.52708496 23.82855469 3.76831055 23.74023438 C0.05245683 24.08891313 -0.84403533 25.39578655 -3.29296875 28.15625 C-4.08896484 29.01347656 -4.88496094 29.87070312 -5.70507812 30.75390625 C-7.35127154 32.57495106 -8.98686094 34.40564181 -10.61132812 36.24609375 C-16.72557544 42.77777964 -16.72557544 42.77777964 -20.69946289 43.47070312 C-22.42263872 43.40870359 -24.14504468 43.29338792 -25.86010742 43.11523438 C-28.18037631 42.78588941 -28.18037631 42.78588941 -30.47265625 44.53125 C-31.25962891 45.50578125 -31.25962891 45.50578125 -32.0625 46.5 C-32.88427734 47.47453125 -32.88427734 47.47453125 -33.72265625 48.46875 C-34.14417969 48.9740625 -34.56570312 49.479375 -35 50 C-35.33 50 -35.66 50 -36 50 C-36.3125 47.8125 -36.3125 47.8125 -36 45 C-35.175 44.278125 -34.35 43.55625 -33.5 42.8125 C-30.73876841 40.36263082 -30.73876841 40.36263082 -31.08984375 37.8828125 C-31.20457031 37.07585938 -31.31929687 36.26890625 -31.4375 35.4375 C-31.52680278 31.91801364 -31.2789001 30.39594128 -29.22851562 27.48510742 C-26.73902441 24.93572366 -24.17146113 22.54545395 -21.5 20.1875 C-19.70812029 18.56767133 -17.92631838 16.93660367 -16.15625 15.29296875 C-15.36025391 14.5868042 -14.56425781 13.88063965 -13.74414062 13.15307617 C-11.75144832 11.09970466 -11.75144832 11.09970466 -11.74023438 8.23168945 C-11.82595703 7.49523193 -11.91167969 6.75877441 -12 6 C-11.4225 6.165 -10.845 6.33 -10.25 6.5 C-7.73335631 7.14462031 -7.73335631 7.14462031 -4 7 C-1.33187535 5.02361137 -0.55704728 3.23087421 0 0 Z M-0.625 8.5 C-1.40875 9.325 -2.1925 10.15 -3 11 C-2.34 12.32 -1.68 13.64 -1 15 C1.88437779 13.70700306 3.87219421 12.34058637 6 10 C5.34 8.68 4.68 7.36 4 6 C1.63721264 5.77011494 1.63721264 5.77011494 -0.625 8.5 Z M-9 13 C-8.01 14.98 -7.02 16.96 -6 19 C-7.98 18.01 -9.96 17.02 -12 16 C-12.33 16.66 -12.66 17.32 -13 18 C-12.67 18.99 -12.34 19.98 -12 21 C-13.32 20.67 -14.64 20.34 -16 20 C-16 23.10551666 -15.4606285 24.35261084 -14 27 C-15.98 26.01 -17.96 25.02 -20 24 C-20.33 24.66 -20.66 25.32 -21 26 C-20.67 26.99 -20.34 27.98 -20 29 C-21.32 28.67 -22.64 28.34 -24 28 C-24 31.10551666 -23.4606285 32.35261084 -22 35 C-23.98 34.01 -25.96 33.02 -28 32 C-27.67 34.31 -27.34 36.62 -27 39 C-24.15411154 40.07734448 -22.94056659 40.493931 -20 40 C-16.23995147 37.2922358 -13.20391248 33.95235879 -10.0625 30.5625 C-9.18787109 29.65177734 -8.31324219 28.74105469 -7.41210938 27.80273438 C-5.25568737 25.55204255 -3.12006742 23.28488055 -1 21 C-2.56377499 17.67697814 -4.21353151 15.43815993 -7 13 C-7.66 13 -8.32 13 -9 13 Z " fill="#000000" transform="translate(37,0)"/>
</svg>
